<svg height="512" viewBox="0 0 64 64" width="512" xmlns="http://www.w3.org/2000/svg"><g id="_1-greenhouse" data-name="1-greenhouse"><path d="m32 17a1 1 0 0 1 -1-1v-11a1 1 0 0 1 2 0v11a1 1 0 0 1 -1 1z" fill="#533e29"/><path d="m63 29-27.56-26.61a4.96 4.96 0 0 0 -3.44-1.39v4l27 26v28h-27v4h31z" fill="#38c3c6"/><path d="m5 59v-28l27-26v-4a4.96 4.96 0 0 0 -3.44 1.39l-27.56 26.61v34h31v-4z" fill="#a3dee3"/><path d="m49 51h-34a4 4 0 0 0 -4 4h-6v4h54v-4h-6a4 4 0 0 0 -4-4z" fill="#736357"/><path d="m20 55a4 4 0 0 1 4-4h-9a4 4 0 0 0 -4 4h-6v4h9a4 4 0 0 1 4-4z" fill="#8f8279"/><path d="m44 55a4 4 0 0 0 -4-4h9a4 4 0 0 1 4 4h6v4h-9a4 4 0 0 0 -4-4z" fill="#564a41"/><path d="m51 33.01c2.99 16.99-19 17.99-19 17.99v-.01c5.01-10.99 19-17.98 19-17.98z" fill="#009245"/><path d="m51 33v.01s-13.99 6.99-19 17.98v-.01c.01-23.98 19-17.98 19-17.98z" fill="#8cc63f"/><path d="m35 16a2.006 2.006 0 0 1 2 2 2.015 2.015 0 0 1 -2 2h-6a2.006 2.006 0 0 1 -2-2 2.015 2.015 0 0 1 2-2z" fill="#a67c52"/><path d="m32 50.98v.01c-5.01-10.99-19-17.97-19-17.97v-.02s18.99-6 19 17.98z" fill="#8cc63f"/><path d="m32 50.99v.01s-21.98-1-19-17.98c0 0 13.99 6.98 19 17.97z" fill="#009245"/><g fill="#0071bc"><path d="m26 25a1 1 0 0 1 -.707-1.707l1-1a1 1 0 0 1 1.414 1.414l-1 1a1 1 0 0 1 -.707.293z"/><path d="m22 29a1 1 0 0 1 -.707-1.707l1-1a1 1 0 0 1 1.414 1.414l-1 1a1 1 0 0 1 -.707.293z"/><path d="m38 25a1 1 0 0 1 -.707-.293l-1-1a1 1 0 0 1 1.414-1.414l1 1a1 1 0 0 1 -.707 1.707z"/><path d="m42 29a1 1 0 0 1 -.707-.293l-1-1a1 1 0 0 1 1.414-1.414l1 1a1 1 0 0 1 -.707 1.707z"/><path d="m32 26a1 1 0 0 1 -1-1v-1a1 1 0 0 1 2 0v1a1 1 0 0 1 -1 1z"/><path d="m32 32a1 1 0 0 1 -1-1v-2a1 1 0 0 1 2 0v2a1 1 0 0 1 -1 1z"/></g></g></svg>